<?xml version="1.0" standalone="no"?>
<!DOCTYPE svg PUBLIC "-//W3C//DTD SVG 20010904//EN"
 "http://www.w3.org/TR/2001/REC-SVG-20010904/DTD/svg10.dtd">
<svg version="1.0" xmlns="http://www.w3.org/2000/svg"
 width="461.000000pt" height="461.000000pt" viewBox="0 0 461.000000 461.000000"
 preserveAspectRatio="xMidYMid meet">
<metadata>
Created by potrace 1.14, written by Peter Selinger 2001-2017
</metadata>
<g transform="translate(0.000000,461.000000) scale(0.100000,-0.100000)"
fill="#000000" stroke="none">
<path d="M2040 4599 c-199 -20 -471 -91 -643 -168 -136 -61 -166 -77 -262
-134 -177 -106 -314 -217 -486 -393 -232 -239 -377 -462 -496 -764 -46 -118
-106 -337 -117 -425 -3 -27 -8 -61 -11 -75 -22 -105 -23 -595 -1 -661 3 -7 7
-32 10 -54 9 -76 38 -200 72 -311 195 -645 750 -1228 1398 -1469 102 -38 291
-89 368 -100 23 -3 50 -8 58 -10 66 -20 502 -34 591 -21 13 3 50 7 83 11 64 7
101 13 132 20 12 3 39 7 60 10 21 4 48 9 59 12 11 4 25 8 30 9 6 1 51 14 100
28 695 202 1315 824 1526 1531 144 482 121 1066 -58 1515 -59 149 -100 229
-186 367 -185 298 -464 576 -766 763 -236 147 -547 263 -801 300 -41 6 -88 13
-105 16 -58 10 -461 12 -555 3z"/>
</g>
</svg>
